<svg width="35" height="37" viewBox="0 0 35 37" fill="none" xmlns="http://www.w3.org/2000/svg">
<rect y="2" width="35" height="35" rx="10" fill="#E7EDF0"/>
<g clip-path="url(#clip0_43_399)">
<path d="M15.1667 12.5833C15.1667 12.0971 15.3599 11.6308 15.7037 11.287C16.0475 10.9432 16.5139 10.75 17.0001 10.75C17.4863 10.75 17.9526 10.9432 18.2964 11.287C18.6403 11.6308 18.8334 12.0971 18.8334 12.5833C19.8861 13.0811 20.7835 13.856 21.4295 14.8249C22.0754 15.7937 22.4455 16.9201 22.5001 18.0833V20.8333C22.5691 21.4032 22.7709 21.949 23.0893 22.4266C23.4078 22.9043 23.8339 23.3005 24.3334 23.5833H9.66675C10.1663 23.3005 10.5924 22.9043 10.9108 22.4266C11.2293 21.949 11.4311 21.4032 11.5001 20.8333V18.0833C11.5547 16.9201 11.9248 15.7937 12.5707 14.8249C13.2166 13.856 14.114 13.0811 15.1667 12.5833" fill="#9DACB4"/>
<path d="M14.25 23.5833V24.4999C14.25 25.2293 14.5397 25.9287 15.0555 26.4445C15.5712 26.9602 16.2707 27.2499 17 27.2499C17.7293 27.2499 18.4288 26.9602 18.9445 26.4445C19.4603 25.9287 19.75 25.2293 19.75 24.4999V23.5833" fill="#9DACB4"/>
</g>
<defs>
<clipPath id="clip0_43_399">
<rect width="22" height="22" fill="white" transform="translate(6 8)"/>
</clipPath>
</defs>
</svg>
